<svg xmlns="http://www.w3.org/2000/svg" xmlns:xlink="http://www.w3.org/1999/xlink" width="160" height="200" viewBox="0 0 8 10" shape-rendering="geometricPrecision" image-rendering="optimizeQuality" fill-rule="evenodd" xmlns:v="https://vecta.io/nano"><path d="M5.25 7.987c.271-.067.389-.125.615-.29l.124-.095.042.121c.012.04.003.047-.032.066a.53.53 0 0 1-.19.046c-.314.026-.336.482-.024.482.039.422.429.355.496.084.047.006.123.009.192-.018.239-.093.209-.286.132-.482-.059-.151-.06-.207-.003-.35.037-.094.023-.162-.078-.193l.031-.219a2.53 2.53 0 0 0-.038-.901l-.223-1.022c.055-.084.046-.191.027-.285l-.013-.07c-.012-.052-.032-.094-.091-.095-.02-.156-.032-.313-.032-.473l.032-1.022v-.071c.115-.047.127-.147.127-.257l-.001-.121c0-.097-.082-.148-.166-.173-.103-.691-.525-1.403-1.228-1.611-.635-.188-1.546-.119-2.147.148-.688.305-.937.737-1.036 1.469-.071.028-.132.078-.132.161l-.001.121c0 .091.006.187.092.24l-.002 1.569c-.065.026-.076.1-.081.161l-.007.076c-.006.084.006.143.05.216-.042.318-.137.471-.211.753-.038.147-.067.344-.067.648 0 .202.013.451.044.764-.073.011-.132.053-.106.136l.049.133c.033.09.033.123-.002.207-.05.122-.07.282-.036.403.041.147.19.249.338.148.095.291.497.215.477-.102.275-.042.285-.33.062-.442-.064-.032-.123-.029-.207-.055-.022-.007-.04-.015-.051-.023s-.015-.017-.011-.035c.004-.023.015-.06.026-.101.328.26.473.33.823.434.135.048.152.087.176.226.017.096.019.197.121.238-.025.098-.083.12-.137.194-.09.124-.064.276.089.318a.64.64 0 0 0 .391-.024c.068-.026.129-.061.189-.095.112-.064.13-.12.111-.239l-.022-.161.03-.009c.123-.041.107-.12.111-.233a.82.82 0 0 1 .01-.117c.012-.063.073-.075.128-.075.096 0 .091.041.091.129v.062c0 .096.015.211.122.243l.001.22c-.005.148.107.256.245.292.111.028.33.049.442.012.187-.062.16-.212.05-.34-.056-.065-.096-.116-.106-.181.074-.02.093-.081.11-.148l.033-.154c.034-.156.1-.202.254-.24z" fill="#201e1e" fill-rule="nonzero"/><path d="M2.37 6.211l-.04-.339c-.197-.18-.446-.405-.602-.612-.028.189-.07.329-.138.504-.023.059-.046.122-.066.199-.037.143-.066.335-.066.636 0 .28.022.561.051.84.087.013.217.02.301-.003l.08-.001c-.129-.207-.211-.441-.207-.687.001-.067.012-.128.099-.105-.008-.224.007-.506.104-.709.014-.03.06-.008.045.022-.096.198-.109.485-.098.705a3.21 3.21 0 0 0 .539.179 4.43 4.43 0 0 0-.003-.63z" fill="#ffc630"/><path d="M2.37 6.891c-.177-.04-.429-.111-.584-.195-.033-.011-.049-.017-.05.022-.011.243.066.474.193.68.067-.042.181-.004.292-.085s.139-.292.149-.422z" fill="#456198"/><path d="M1.881 8.01c.118.016.171.051.211.232.296.011.311-.243.139-.337-.083-.045-.178-.039-.262-.08-.065-.032-.062-.068-.047-.127l.028-.103c-.027-.029-.056-.069-.063-.108h-.068c-.041.097-.05.508.062.524z" fill="#313130"/><g fill="#364666"><path d="M3.019 8.19c.091.051.644.062.651.144l.062.138c.086-.028.083-.05.087-.128.003-.057.002-.126.013-.187.005-.025.015-.048.033-.067l-.003-.005-.099.004-.002.01c.005.016-.006.032-.023.033l-.246.005a3 3 0 0 1-.512-.034c.018.026.031.056.04.087z"/><path d="M4.152 8.218c.108.056.21.006.319.006s.194.022.233.042c.049.026.065.078.049.149l-.006.025-.007.025.005.02h.053c.092-.004.102-.053.119-.13.022-.098.034-.216.095-.297-.128.02-.342.046-.675.046h-.046c-.014 0-.023-.012-.025-.025l-.015-.018-.11-.001-.017.02c.024.037.028.096.028.139z"/></g><path d="M4.273 8.732l-.001.05c0 .12.154.202.26.222.139.026.329.022.4-.018.083-.047.077-.111.032-.184-.131.113-.45.138-.691-.069zm-.566-.019c-.111.12-.548.208-.718.087-.061.146.042.192.153.208.184.025.307-.031.458-.116.085-.048.123-.078.107-.178z" fill="#313130"/><path d="M4.151 8.284a.51.51 0 0 0 .005.08c.004.026.011.05.023.069a.11.11 0 0 0 .03.033c.005.004.015.009.028.012l.047.009c.143.019.308-.002.453-.002h.008c.015-.048.065-.224-.004-.26-.039-.02-.13-.029-.241-.029a2.93 2.93 0 0 0-.348.022v.003l-.001.062zm-.418.189l-.023-.18c-.007-.082-.562-.1-.691-.103l.011.044c.014.067.02.136.04.193.006.017.015.03.029.04s.032.019.053.025c.072.02.181.014.26.014h.038a.92.92 0 0 0 .282-.034z" fill="#456198"/><path d="M5.589 6.901c.026.319.141.443.379.564a1.5 1.5 0 0 0 .117-.21c-.121-.104-.243-.19-.381-.385l-.115.03z" fill="#3c527c"/><path d="M5.704 6.871a.73.73 0 0 0 .153.29c.053.055.122.095.208.095a.96.96 0 0 0 .128-.471c0-.079.008-.097-.068-.066l-.079.034a3.43 3.43 0 0 1-.292.103l-.051.015z" fill="#456198"/><path d="M6.259 7.759l-.085-.288-.06-.018h-.078l-.023.036c.031.02.052.047.019.077l.046.135c.013.037.021.069-.014.103-.058.057-.196.076-.261.081-.245.017-.286.428.054.382.06-.119.038-.167.147-.209.118-.045.273-.233.256-.301z" fill="#313130"/><g fill="#caa13c"><path d="M5.982 5.86s.014.641-.041.836l.035.031.138-.057c.004-.239-.035-.492-.115-.716-.004-.011 0-.023.009-.029-.001-.018-.019-.049-.026-.064z"/><path d="M6.162 5.345c.151.678.303 1.442.145 2.085l.01.015c.05.003.109-.001.151-.03 0-.018.004-.046.006-.065l.031-.221c.047-.311.021-.573-.038-.881l-.216-.985-.091.082zm-.617-1.518c-.523.345-1.232.232-1.574-.312a1.09 1.09 0 0 1-1.173.483c.195.359 1.006.316 1.321.151.419.313 1.087-.043 1.426-.322zm.633 1.02a3.92 3.92 0 0 1-.042-.555l.032-1.078a.87.87 0 0 1-.114.016l-.003.003c-.003.178-.037.358-.056.481-.07.45-.108.801.038 1.241l.014.009.132-.117zm-.053-2.213a2.48 2.48 0 0 0-.097-.402c-.027.112-.023.222-.018.37l.035.021.079.011z"/></g><path d="M3.972 2.358c.492-.784 1.693-.634 1.966.26a1.04 1.04 0 0 1 .108.005l-.018-.39c-.14-.413-.466-.867-.864-1.06-.54-.262-1.479-.229-2.052-.051-.805.25-1.173.672-1.292 1.513.068-.018.139-.023.188-.024.278-.889 1.474-1.034 1.964-.253z" fill="#ffc630"/><path d="M1.983 5.467l.27.262c.072.07.188.186.272.231.036.02.073.035.09-.012l.056-.152c.017-.05.029-.098.029-.133 0-.02-.003-.041-.017-.056l-.445-.303a5.25 5.25 0 0 1-.321-.271l-.198-.182.004-.045c-.019.023-.025.059-.027.087l-.009.128c0 .081.033.14.08.203.055.074.132.157.217.242zm.432.142c.024-.026.058-.043.095-.043s.071.017.095.043a.15.15 0 0 1 .038.101.15.15 0 0 1-.038.101c-.024.026-.058.043-.095.043s-.071-.017-.095-.043a.15.15 0 0 1-.038-.101c0-.039.014-.075.038-.101z" fill="#456198"/><path d="M5.995 5.075l.091.271.135-.124c.081-.07.071-.188.051-.283l-.019-.09c-.003-.018-.01-.031-.029-.034l.007.05-.237.209zM1.999 7.431l-.031.003c-.034.018-.039.034-.028.06a.36.36 0 0 0 .098.115c.415.357.916.479 1.453.479l.244-.005c.011 0 .021.007.025.017l.105-.009c.037-.039.094-.049.145-.049.043 0 .087-.002.113.038h.063.08c-.002-.021.01-.03.026-.03L5.073 8c.065-.045.1-.047.209-.075.147-.037.239-.067.372-.148a2.57 2.57 0 0 0 .337-.243c-.102-.059-.188-.074-.314-.222-1.103.544-2.846.528-3.677.117z" fill="#3c527c"/><g fill="#3d3d3a"><path d="M1.685 2.813l-.001.053h.058.025.025.167a1.09 1.09 0 0 1 .033-.204L1.9 2.67a.58.58 0 0 0-.088.019l-.027.009-.027.012c-.034.019-.053.037-.064.059-.006.013-.01.027-.01.043z"/><path d="M1.961 3.016l-.178-.008-.025-.001-.025-.001-.047-.002.004.029c.005.028.014.051.028.069s.024.024.034.03.017.009.025.013a.3.3 0 0 0 .068.018 1.06 1.06 0 0 0 .14.014 1.09 1.09 0 0 1-.024-.161zm3.991-.348a1.09 1.09 0 0 1 .031.204h.07.1.025 0 .025.09V2.82c0-.017-.003-.031-.01-.043a.11.11 0 0 0-.027-.034.24.24 0 0 0-.071-.04l-.025-.008-.028-.007a.71.71 0 0 0-.085-.014l-.096-.005z"/><path d="M6.162 3.016l-.107.005-.073.003a1.09 1.09 0 0 1-.025.159l.024.001a.74.74 0 0 0 .074-.004l.079-.01.034-.007.025-.008c.009-.003.018-.007.025-.011.035-.023.048-.04.058-.062.006-.015.011-.032.014-.051l-.077-.016-.025.001h0l-.025.001zM3.089 8.674c-.022.024-.051.049-.074.081-.01.014-.019.029-.025.045.08.119.594.175.718-.087l-.023-.161c-.064-.003-.135.006-.208.006H3.45h-.037l-.1.001a.86.86 0 0 1-.133-.008l-.02-.004c-.004.016-.01.031-.016.045-.014.032-.034.06-.054.082zm1.648-.138l-.323.008a1.19 1.19 0 0 1-.106-.004l-.035-.004v.123.071a.54.54 0 0 0 .116.125c.124.039.482.038.567-.046l.008-.009-.016-.025a.87.87 0 0 0-.069-.08.31.31 0 0 1-.075-.161l-.023.001-.043-.001z"/></g><path d="M4.401 8.866c.087.065.316.056.431.048.062-.004.13-.023.124-.104-.229-.096-.618.009-.555.056zm-.855.001c.02-.011.023-.018-.003-.029a1.47 1.47 0 0 0-.251-.054c-.105-.016-.205-.04-.296.025.018.101.132.112.233.113h.026c.104-.005.195-.002.291-.055z" fill="#858479"/><path d="M1.91 7.99c-.098-.099-.11-.361-.105-.501-.109.022-.232.011-.341-.006l-.007-.069c-.066.011-.077.031-.056.094l.049.133c.029.089.023.135-.012.219a.65.65 0 0 0-.048.307c.017.195.221.272.329.154.026.214.283.255.37.116.084-.134.024-.411-.18-.445zm4.264-.519l.045.301c-.069.159-.113.164-.238.258-.061.046-.103.092-.127.164-.028.084-.021.199.031.276.114.17.326.066.355-.129.077.018.161.02.233-.01.152-.064.154-.202.11-.344-.068-.204-.116-.238-.022-.469.023-.056.027-.087-.042-.109l-.002.031c-.096.079-.231.06-.342.031z" fill="#3d3d3a"/><path d="M2.432 6.494l-.009.357c-.02.317-.087.584-.424.58a.75.75 0 0 0 .105.082c.176.117.559.291 1.291.312.703.02 1.729-.026 2.282-.511-.156-.19-.146-.502-.146-.739l.017-.678c-.039.03-.082.064-.126.085-.052.025-.102.024-.13-.032a1.16 1.16 0 0 1-.085-.232c-.011-.048-.026-.137.028-.167l.101-.061-.398.033c-.856.069-1.515.056-2.385-.07.074.046.131.081.166.118.058.06.022.174 0 .24l-.056.153c-.029.08-.097.074-.162.039-.04-.022-.079-.052-.114-.082l.045.572z" fill="#456198"/><g fill="#3c527c"><path d="M4.323 6.553c0-.249-.19-.372-.379-.371-.494.003-.494.736-.001.743.178.003.357-.108.379-.337h-.069l-.306.306-.341-.341.341-.341.312.312H4.07c-.013-.056-.063-.097-.123-.097-.166 0-.166.253 0 .253.058 0 .106-.038.121-.091h-.112v-.035h.366z"/><path d="M3.616 6.04l-.183-.015-.043-.001c-.075 0-.118.023-.109.107.023.223-.001.429.073.652.019.057.046.106.083.147.2.222.799.228 1.011.039.084-.075.123-.166.132-.232l.049-.545.005-.071c.004-.064.003-.084-.073-.093a.56.56 0 0 0-.06-.003c-.068 0-.158.007-.254.014a3.93 3.93 0 0 1-.631.001zm-.284.086c-.007-.067.052-.052.1-.051.04.001.096.008.18.015a4.09 4.09 0 0 0 .639-.001l.226-.014c.028-.001.082-.002.107.008l-.002.034-.053.612c-.007.054-.041.135-.115.202-.184.164-.609.145-.819.051-.05-.022-.09-.051-.121-.086s-.055-.077-.072-.129c-.072-.219-.049-.424-.07-.642z"/></g><path d="M5.285 5.581c-.055.033-.045.058-.029.127.006.026.014.054.024.081a1.21 1.21 0 0 0 .058.139c.015.029.037.021.063.009.016-.008.035-.019.055-.034l.096-.073c.13-.103.247-.212.368-.326l.175-.166-.09-.271-.224.183-.272.191-.224.141zm.142-.015c.038 0 .071.017.095.043.017.019.03.043.035.07.002.01.003.02.003.031s-.002.025-.004.037c-.006.024-.018.046-.034.064-.024.026-.058.043-.095.043s-.071-.017-.095-.043a.15.15 0 0 1-.038-.101.15.15 0 0 1 .038-.101c.024-.026.058-.043.095-.043z" fill="#456198"/><path d="M5.6 5.856l-.014.994a3.26 3.26 0 0 0 .39-.123c.064-.232.011-.849.011-.849l.021.047c.013-.009.033-.003.038.012a2.12 2.12 0 0 1 .118.719c.052-.006.076.026.079.077a1.23 1.23 0 0 1-.177.67h.056a.7.7 0 0 0 .194.042c.164-.645.025-1.474-.152-2.103l-.565.515zM3.961 4.782c.241 0 .519-.035.808-.14.031-.011.048.036.017.047a2.42 2.42 0 0 1-.826.143c-.486 0-.825-.138-.827-.139-.031-.012-.012-.059.019-.047.233.093.563.135.808.135zm-1.515.605c1.164.176 1.975.121 2.977.048a5.14 5.14 0 0 0 .622-.471c-.201-.588-.002-1.14.008-1.734a.62.62 0 0 1-.11.002C5.745 3.935 4.77 4.318 4.092 4c-.409.213-.882.187-1.294-.003a1.09 1.09 0 0 1-.801-.77.82.82 0 0 1-.222-.03l.005.696-.01.938c.219.204.424.393.676.556z" fill="#ffc630"/><path d="M2.313 2.202a1.04 1.04 0 0 0-.253.41c-.065.198-.069.413-.012.613a1.04 1.04 0 0 0 .652.692c.109.038.225.059.347.059.407 0 .725-.215.924-.561.199.346.516.561.924.561a1.04 1.04 0 0 0 1.026-.874c.026-.161.014-.327-.036-.482a1.04 1.04 0 0 0-.256-.419c-.188-.188-.448-.304-.735-.304-.408 0-.725.215-.924.561-.199-.346-.516-.561-.924-.561-.287 0-.547.116-.735.304z" fill="#dac9ab"/><path d="M3.048 1.973c-.478 0-.876.35-.951.807-.008.051-.013.104-.013.157 0 .074.008.146.024.215.077.337.331.607.658.707a.96.96 0 0 0 .281.042c.344 0 .664-.186.836-.485l.087-.152.087.152c.172.299.492.485.836.485a.96.96 0 0 0 .964-.964c0-.531-.432-.964-.964-.964-.344 0-.664.186-.836.485l-.087.152-.087-.152c-.172-.299-.492-.485-.836-.485z" fill="#9d8c7e"/><use xlink:href="#B" fill="#fefefe"/><g fill="#201e1e"><use xlink:href="#C"/><path d="M4.929 3.018c0-.139-.113-.252-.252-.252s-.252.113-.252.252a.25.25 0 0 0 .02.098c.038.091.128.154.233.154a.25.25 0 0 0 .117-.029c.08-.042.135-.126.135-.223z"/></g><use xlink:href="#D" fill="#b1705a"/><use xlink:href="#E" fill="#7d5149"/><use xlink:href="#F" fill="#523d38"/><g fill-rule="nonzero"><path d="M4.621 2.922c0 .03-.024.054-.054.054s-.054-.024-.054-.054.024-.054.054-.054.054.024.054.054z" fill="#fefefe"/><use xlink:href="#G" fill="#282828"/></g><use xlink:href="#B" x="-1.846" fill="#fefefe"/><g fill="#201e1e"><use xlink:href="#C" x="-1.846"/><path d="M3.498 3.018c0-.139-.113-.252-.252-.252s-.252.113-.252.252c0 .035.007.068.02.098.038.091.128.154.233.154a.25.25 0 0 0 .117-.029c.08-.042.135-.126.135-.223z"/></g><use xlink:href="#D" x="-1.431" fill="#b1705a"/><use xlink:href="#E" x="-1.431" fill="#7d5149"/><use xlink:href="#F" x="-1.431" fill="#523d38"/><g fill-rule="nonzero"><path d="M3.19 2.922c0 .03-.024.054-.054.054s-.054-.024-.054-.054.024-.054.054-.054.054.024.054.054z" fill="#fefefe"/><use xlink:href="#G" x="-1.431" fill="#282828"/></g><defs ><path id="B" d="M4.469 3.568a.76.76 0 0 0 .921-.052.76.76 0 0 0-.495-1.342.76.76 0 0 0-.762.762.77.77 0 0 0 .005.085.76.76 0 0 0 .331.547z"/><path id="C" d="M4.895 2.174a.76.76 0 0 0-.762.762.77.77 0 0 0 .005.085.76.76 0 0 0 .331.547c-.14-.13-.229-.314-.235-.519v-.021c0-.407.33-.737.737-.737.266 0 .498.141.628.351a.76.76 0 0 0-.704-.469z"/><path id="D" d="M4.635 3.248c.013.002.027.004.042.004.033 0 .065-.007.094-.02s.051-.028.071-.049.041-.05.053-.081c-.044-.104-.302.023-.26.146z"/><path id="E" d="M4.656 3.189c.033-.058.098-.098.173-.098.023 0 .045.004.066.011.01-.026.016-.055.016-.084 0-.038-.009-.074-.025-.105-.067-.075-.177-.075-.26-.029-.122.068-.193.228-.079.329.026.017.056.03.088.035a.18.18 0 0 1 .021-.059z"/><path id="F" d="M4.514 3.098c0-.125.106-.226.236-.226.051 0 .097.015.136.041-.011-.022-.026-.043-.044-.06-.042-.042-.101-.069-.166-.069s-.123.026-.166.069-.069.101-.069.166c0 .038.009.074.025.106.011.022.026.042.043.06.011.011.023.021.036.029a.22.22 0 0 1-.029-.072c-.003-.014-.004-.028-.004-.043z"/><path id="G" d="M4.775 3.018c0 .054-.044.098-.098.098s-.098-.044-.098-.098.044-.098.098-.098.098.044.098.098z"/></defs></svg>